<svg width="341" height="290" viewBox="0 0 341 290" fill="none" xmlns="http://www.w3.org/2000/svg">
<path d="M34.8055 247.873C66.0295 226.724 132.764 185.787 149.912 191.235C124.487 213.92 65.8712 257.006 34.8055 247.873ZM34.8055 247.873C25.4614 205.603 41.1931 120.127 50.227 82.6726C60.0264 109.261 44.0291 203.885 34.8055 247.873ZM34.8055 247.873L68.1501 202.147M68.1501 202.147C80.093 174.082 104.877 111.317 108.468 84.7715C87.676 113.32 50.5039 176.763 68.1501 202.147ZM68.1501 202.147C97.8248 179.57 165.347 136.082 198.038 142.748C163.983 165.031 90.3289 208.106 68.1501 202.147ZM68.1501 202.147L120.952 149.575M120.952 149.575C137.439 117.238 169.109 49.9637 163.885 39.5666C132.639 79.102 80.3076 156.453 120.952 149.575ZM120.952 149.575L145.87 130.166M170.788 110.756C186.1 105.956 221.657 99.6084 241.387 112.614C218.772 123.325 168.007 141.831 145.87 130.166M170.788 110.756L145.87 130.166M170.788 110.756L188.521 98.428M206.255 86.1002C218.692 67.1553 244.606 24.034 248.764 3.10753C221.579 20.0573 171.471 62.851 188.521 98.428M206.255 86.1002L188.521 98.428M206.255 86.1002L225.811 74.5928M206.255 86.1002C240.479 105.062 274.711 90.2825 287.55 80.5227C268.403 81.8085 238.413 77.1052 225.811 74.5928M225.811 74.5928L253.885 56.12M253.885 56.12L281.96 37.6472C295.959 33.7608 326.648 27.4572 337.413 33.3338C320.132 47.7132 279.232 72.4016 253.885 56.12ZM22.2633 287.488C46.9313 284.535 102.299 271.93 126.427 245.137C97.8682 246.898 37.0536 257.833 22.2633 287.488ZM-7.59309 141.238C-12.5376 170.561 -18.1561 235.591 -1.07368 261.125C20.2794 293.042 12.7847 162.143 -7.59309 141.238Z" stroke="#35C378" stroke-width="3"/>
</svg>
