<svg width="59" height="64" viewBox="0 0 59 64" fill="none" xmlns="http://www.w3.org/2000/svg">
<path d="M57.8711 34.1415C58.5606 33.576 59 32.7205 59 31.7632C59 30.8058 58.5606 29.9504 57.8711 29.3849C57.8019 29.3032 57.7286 29.2238 57.6512 29.1469L42.564 14.1663C41.3514 12.9622 39.3852 12.9622 38.1725 14.1663C36.9599 15.3704 36.9599 17.3226 38.1725 18.5268L48.3978 28.6799L3.10526 28.6799C1.39028 28.6799 0 30.0603 0 31.7632C0 33.4661 1.39028 34.8465 3.10526 34.8465H48.3978L38.1725 44.9996C36.9599 46.2037 36.9599 48.156 38.1725 49.3601C39.3852 50.5642 41.3514 50.5642 42.564 49.3601L57.6512 34.3795C57.7286 34.3026 57.8019 34.2232 57.8711 34.1415Z" fill="#F0F3FD"/>
</svg>
