<svg width="237" height="431" viewBox="0 0 237 431" fill="none" xmlns="http://www.w3.org/2000/svg">
<path d="M127.851 452C174.91 440.77 265.465 405.174 251.221 352.633C232.284 329.319 205.773 277.489 251.221 256.677C266.483 232.794 283.102 181.277 227.479 166.265C218.435 168.113 201.195 176.756 204.586 196.544C207.978 216.333 208.913 217.044 207.5 211.5C201.434 229.116 217.135 235.95 204.586 245.162C192.037 254.374 190.271 252.99 195.5 251C204.824 246.241 167.279 265.377 172.366 279.706C170.67 289.373 174.74 315.615 204.586 343.25C209.108 364.574 200.092 416.177 127.851 452ZM127.851 452C149.473 428.544 190.681 373.956 182.541 343.25C173.214 319.226 154.56 269.727 154.56 263.927C154.56 256.677 193.564 180.339 188.052 160.721C179.997 150.344 162.022 126.262 154.56 112.956C156.397 97.4613 160.071 64.2535 160.071 55.3829C149.614 34.2016 123.103 -5.8582 100.719 3.35356C88.5653 9.7506 71.5508 30.6476 100.719 63.0593C108.35 74.0054 119.033 97.6034 100.719 104.427C100.86 113.383 106.484 137.18 127.851 160.721C136.896 172.378 149.557 200.639 127.851 220.427C106.145 240.215 123.937 229.368 100.26 250.684C88.8735 259.782 102.389 266.4 137.178 312.118C146.646 325.232 164.481 358.178 160.071 385.044C146.222 402.529 120.39 440.4 127.851 452ZM127.851 452C137.885 429.539 153.797 379.33 137.178 358.177C133.787 348.936 123.018 329.262 107.078 324.485C99.588 317.235 86.2195 298.13 92.6635 279.706C93.3701 249.427 85.0324 192.024 46.0291 204.647C7.02569 217.271 3.18386 216.342 2 227C16.2063 249.5 15.5047 230.833 46.0291 272.456C53.2362 282.123 69.5159 309.815 76.9774 343.25C86.8695 349.363 108.774 365 117.253 378.647C125.732 392.294 125.818 399.47 126.097 401.677C128.216 418.451 127.851 431.188 127.851 452ZM127.851 452C126.156 435.226 116.744 401.677 92.6635 401.677C85.3151 398.158 71.89 386.75 76.9774 369.265C70.4768 358.461 53.9145 343.335 39.6698 369.265C36.2782 375.378 34.2432 392.55 53.2362 412.338C61.5739 414.613 81.1321 421.294 92.6635 429.824C97.0443 431.387 108.943 438.012 121.492 452" stroke="#35C378" stroke-width="3"/>
</svg>
