<svg width="1468" height="671" viewBox="0 0 1468 671" fill="none" xmlns="http://www.w3.org/2000/svg">
<g clip-path="url(#clip0_319_742)">
<rect width="1468" height="671" rx="60" fill="#35C378" fill-opacity="0.1"/>
<path d="M14 659.782C28.7718 656.646 61.2864 646.314 73.1699 630.073C85.0534 613.832 81.2573 623.306 77.8738 630.073C82.7427 641.461 98.967 662.406 124.913 655.078" stroke="#32C171" stroke-width="3"/>
<path d="M124.665 655.132C139.437 651.996 171.951 641.664 183.835 625.424C195.718 609.183 191.922 618.657 188.539 625.424C193.408 636.812 209.632 657.757 235.578 650.428" stroke="#32C171" stroke-width="3"/>
<path d="M234.587 650.676C249.359 647.54 281.874 637.208 293.757 620.967C305.641 604.727 301.845 614.2 298.461 620.967C303.33 632.356 319.554 653.3 345.5 645.972" stroke="#32C171" stroke-width="3"/>
<path d="M290 678.782C304.772 675.646 337.286 665.314 349.17 649.073C361.053 632.832 357.257 642.306 353.874 649.073C358.743 660.461 374.967 681.406 400.913 674.078" stroke="#32C171" stroke-width="3"/>
<path d="M400.665 674.132C415.437 670.996 447.951 660.664 459.835 644.424C471.718 628.183 467.922 637.657 464.539 644.424C469.408 655.812 485.632 676.757 511.578 669.428" stroke="#32C171" stroke-width="3"/>
<path d="M510.587 669.676C525.359 666.54 557.874 656.208 569.757 639.967C581.641 623.727 577.845 633.2 574.461 639.967C579.33 651.356 595.554 672.3 621.5 664.972" stroke="#32C171" stroke-width="3"/>
<path d="M511 654.782C525.772 651.646 558.286 641.314 570.17 625.073C582.053 608.832 578.257 618.306 574.874 625.073C579.743 636.461 595.967 657.406 621.913 650.078" stroke="#32C171" stroke-width="3"/>
<path d="M621.665 650.132C636.437 646.996 668.951 636.664 680.835 620.424C692.718 604.183 688.922 613.657 685.539 620.424C690.408 631.812 706.632 652.757 732.578 645.428" stroke="#32C171" stroke-width="3"/>
<path d="M731.587 645.676C746.359 642.54 778.874 632.208 790.757 615.967C802.641 599.727 798.845 609.2 795.461 615.967C800.33 627.356 816.554 648.3 842.5 640.972" stroke="#32C171" stroke-width="3"/>
<path d="M816 689.782C830.772 686.646 863.286 676.314 875.17 660.073C887.053 643.832 883.257 653.306 879.874 660.073C884.743 671.461 900.967 692.406 926.913 685.078" stroke="#32C171" stroke-width="3"/>
<path d="M926.665 685.132C941.437 681.996 973.951 671.664 985.835 655.424C997.718 639.183 993.922 648.657 990.539 655.424C995.408 666.812 1011.63 687.757 1037.58 680.428" stroke="#32C171" stroke-width="3"/>
<path d="M1036.59 680.676C1051.36 677.54 1083.87 667.208 1095.76 650.967C1107.64 634.727 1103.84 644.2 1100.46 650.967C1105.33 662.356 1121.55 683.3 1147.5 675.972" stroke="#32C171" stroke-width="3"/>
<path d="M1148 670.782C1162.77 667.646 1195.29 657.314 1207.17 641.073C1219.05 624.832 1215.26 634.306 1211.87 641.073C1216.74 652.461 1232.97 673.406 1258.91 666.078" stroke="#32C171" stroke-width="3"/>
<path d="M1258.67 666.132C1273.44 662.996 1305.95 652.664 1317.83 636.424C1329.72 620.183 1325.92 629.657 1322.54 636.424C1327.41 647.812 1343.63 668.757 1369.58 661.428" stroke="#32C171" stroke-width="3"/>
<path d="M1368.59 661.676C1383.36 658.54 1415.87 648.208 1427.76 631.967C1439.64 615.727 1435.84 625.2 1432.46 631.967C1437.33 643.356 1453.55 664.3 1479.5 656.972" stroke="#32C171" stroke-width="3"/>
<path d="M1247 195.782C1261.77 192.646 1294.29 182.314 1306.17 166.073C1318.05 149.832 1314.26 159.306 1310.87 166.073C1315.74 177.461 1331.97 198.406 1357.91 191.078" stroke="#32C171" stroke-width="3"/>
<path d="M1357.67 191.132C1372.44 187.996 1404.95 177.664 1416.83 161.424C1428.72 145.183 1424.92 154.657 1421.54 161.424C1426.41 172.812 1442.63 193.757 1468.58 186.428" stroke="#32C171" stroke-width="3"/>
<path d="M1467.59 186.676C1482.36 183.54 1514.87 173.208 1526.76 156.967C1538.64 140.727 1534.84 150.2 1531.46 156.967C1536.33 168.356 1552.55 189.3 1578.5 181.972" stroke="#32C171" stroke-width="3"/>
<path d="M1326 448.782C1340.77 445.646 1373.29 435.314 1385.17 419.073C1397.05 402.832 1393.26 412.306 1389.87 419.073C1394.74 430.461 1410.97 451.406 1436.91 444.078" stroke="#32C171" stroke-width="3"/>
<path d="M1436.67 444.132C1451.44 440.996 1483.95 430.664 1495.83 414.424C1507.72 398.183 1503.92 407.657 1500.54 414.424C1505.41 425.812 1521.63 446.757 1547.58 439.428" stroke="#32C171" stroke-width="3"/>
</g>
<defs>
<clipPath id="clip0_319_742">
<rect width="1468" height="671" rx="60" fill="white"/>
</clipPath>
</defs>
</svg>
