<svg width="77" height="84" viewBox="0 0 77 84" fill="none" xmlns="http://www.w3.org/2000/svg">
<path d="M37.7217 83.5777C54.461 83.5272 68.1608 83.4827 68.1669 83.4793C68.2413 83.4353 57.7436 82.7287 57.4674 82.516C56.9197 82.0923 66.1293 81.8991 65.1107 81.6055L64.5857 81.4534L61.456 81.3959C58.5791 81.3432 58.2976 81.3316 57.9695 81.2535C55.8158 80.7415 54.1148 80.9671 52.7499 81.9456C51.7593 82.656 51.2198 82.5073 51.1289 81.4986L51.1014 81.1919L50.8493 81.0901C49.5089 80.5489 48.0621 80.5399 46.3543 81.0628C45.5254 81.3166 44.3434 81.6159 44.0303 81.6511L43.7807 81.6794L43.2078 81.3563C41.6967 80.5042 38.6712 79.1549 37.7458 78.9204C36.3384 78.5636 35.5078 78.8578 34.7244 79.9908C34.3417 80.5445 34.3942 80.5199 32.9751 80.8102C30.3353 81.35 28.8873 81.7466 27.3042 82.3633C26.0217 82.8631 25.5484 82.8409 24.6549 82.2395C23.8544 81.7007 23.757 81.6637 20.762 80.7631L19.1441 80.2765L18.8448 80.5636C18.6802 80.7215 18.3565 81.0323 18.1255 81.2545L17.7055 81.6579L14.1137 82.1044C10.5545 82.5467 17.7174 83.0367 11.3687 83.5777C7.84522 83.8781 21.4126 82.3555 21.3547 82.3633C21.1222 82.3952 8.74524 83.6669 37.7222 83.5791L37.7217 83.5777ZM14.3265 80.0297C13.3342 79.2463 13.8407 78.4092 15.395 78.2634C16.8618 78.1256 21.7565 78.795 26.0229 79.7164C26.2771 79.7713 26.4974 79.8032 26.5127 79.7875C26.5482 79.751 30.4075 72.5426 30.3974 72.5322C30.3867 72.5211 28.0979 72.8619 26.6741 73.0867C13.47 75.1708 6.59898 77.802 8.78849 79.9354L8.96777 80.1102L11.3687 80.1549C12.6891 80.1793 13.9434 80.1994 14.1555 80.1994H14.5414L14.3265 80.0297ZM33.4789 78.7021C33.4772 78.5479 32.8874 73.0468 32.8708 73.0301C32.8589 73.0181 32.8493 73.0476 32.8493 73.0956C32.8493 73.5552 31.0485 76.1232 29.2323 78.2538L28.9054 78.6371L30.0057 78.662C32.907 78.7278 33.4794 78.7343 33.4789 78.7021ZM48.8524 71.3366C51.0547 68.466 52.8864 66.0828 52.9231 66.04C53.106 65.8268 51.4515 63.5126 49.8575 61.7524C42.3237 53.433 30.2819 50.4289 17.9561 53.7939L17.7879 53.8398L14.8393 58.6344C13.2175 61.2716 11.8971 63.4355 11.9051 63.4435C11.9128 63.4512 12.0488 63.3927 12.2071 63.3132C14.2403 62.2933 17.4415 61.3407 20.1214 60.9588C30.8547 59.4227 39.5408 64.8157 44.7015 76.2274L44.8505 76.5571L48.8546 71.3381L48.8524 71.3366ZM8.73533 74.3122C10.373 72.8754 14.9905 71.6344 21.3547 70.9209C21.9763 70.8513 22.4886 70.7891 22.4929 70.7831C22.4975 70.7771 23.1958 68.9779 24.045 66.785C24.8943 64.5921 25.5977 62.777 25.608 62.7512C25.6184 62.7255 25.574 62.6931 25.5092 62.6794C21.4233 61.8084 17.9559 62.2191 14.4713 63.9864C13.7993 64.3272 12.6089 65.07 12.4736 65.2329C12.4156 65.3028 8.51667 74.4507 8.53697 74.4696C8.54229 74.4744 8.63145 74.4036 8.73558 74.3122H8.73533ZM54.5151 60.903C56.9006 56.185 57.9567 52.1253 57.3821 49.8807C57.1067 48.8048 54.3375 45.8314 51.9178 44.0134C44.7362 38.6165 35.8146 37.5379 26.0004 40.879L24.9712 41.2295L22.4163 45.8381C21.0111 48.3731 19.8704 50.4557 19.8813 50.4666C19.8922 50.4775 20.2099 50.448 20.5878 50.4014C35.1647 48.5969 47.9565 52.8007 53.6893 61.2793L54.0524 61.8164L54.5149 60.9017L54.5151 60.903ZM57.3263 45.0388C57.3904 44.8101 57.358 42.2374 57.2819 41.5004C56.2538 31.5357 50.052 24.0638 39.55 20.1395C38.4253 19.7191 38.0991 19.6171 38.0471 19.6691C37.9858 19.7302 27.2235 37.8671 27.239 37.8831C27.246 37.8901 27.4728 37.8289 27.7434 37.747C31.9952 36.4593 37.5284 36.2495 42.1773 37.1992C47.7891 38.3462 52.3928 40.7414 57.0536 44.9377L57.2937 45.1541L57.3266 45.0366L57.3263 45.0388ZM40.1294 16.8975C40.5186 13.4066 42.1157 11.3597 46.948 8.15734C47.4368 7.83343 47.8714 7.54482 47.9142 7.51581C48.0664 7.41259 46.927 7.55231 46.0893 7.73964C42.2652 8.59437 39.0158 11.0841 37.9727 13.9582C37.9203 14.1025 37.872 14.2204 37.8652 14.2204C37.8584 14.2204 37.6767 14.1733 37.4612 14.1155C32.6763 12.8315 28.2885 13.9035 26.6149 16.7655C26.3261 17.2591 26.3341 17.2702 26.769 16.9843C28.779 15.6626 31.1403 15.4037 34.5493 16.1315C36.2084 16.4856 37.0145 16.7484 39.9709 17.899C39.9999 17.9103 40.0552 17.5601 40.1291 16.897L40.1294 16.8975ZM33.8138 6.31228C33.8138 4.23879 34.8873 2.71908 37.6871 0.828574C38.4533 0.311531 38.4528 0.305006 37.6758 0.437953C35.3178 0.840661 33.2499 2.36182 32.6267 4.15153C32.6057 4.2122 32.5743 4.21098 32.295 4.13944C29.5278 3.42926 26.9669 4.09859 26.1212 5.75293C26.0224 5.94607 26.0265 5.94631 26.3201 5.75873C27.8401 4.78725 30.0654 4.87959 33.0641 6.03889C33.3726 6.15805 33.6674 6.27191 33.7193 6.29173C33.7715 6.31155 33.8138 6.32074 33.8138 6.31228Z" fill="#323F48"/>
</svg>
