<svg width="350" height="697" viewBox="0 0 350 697" fill="none" xmlns="http://www.w3.org/2000/svg">
<g clip-path="url(#clip0_410_1377)">
<rect width="350" height="697" rx="30" fill="url(#paint0_linear_410_1377)"/>
<path d="M354.378 592.426L348.554 586.257L346.161 588.516M331.118 602.718L335.563 598.522M331.118 602.718L320.118 591.066C319.573 590.717 318.468 590.551 318.409 592.68L314.483 602.22L334.866 623.809L346.233 622.152C347.018 621.842 348.266 620.881 346.971 619.51C345.677 618.139 335.863 607.744 331.118 602.718ZM335.563 598.522L347.21 610.859C349.214 606.59 351.811 596.145 346.161 588.516M335.563 598.522L346.161 588.516" stroke="#F0F3FD"/>
<path d="M36.3036 634.06L37.5407 629.089L35.6122 628.609M23.4898 625.592L27.0714 626.483M23.4898 625.592L25.8267 616.202C25.8265 615.811 25.5507 615.195 24.4492 615.859L18.3204 616.973L13.9903 634.372L18.5382 639.609C18.9516 639.908 19.8471 640.228 20.122 639.124C20.3969 638.019 22.4818 629.642 23.4898 625.592ZM27.0714 626.483L24.5971 636.425C27.4205 636.052 33.5763 633.967 35.6122 628.609M27.0714 626.483L35.6122 628.609" stroke="#F0F3FD"/>
<path d="M321.338 35.7318L318.926 32.139L317.532 33.0747M308.771 38.9561L311.359 37.2184M308.771 38.9561L304.215 32.1697C303.97 31.9481 303.428 31.7716 303.22 32.8381L300.443 37.3078L308.884 49.8826L314.743 50.0036C315.164 49.9139 315.872 49.5348 315.336 48.7365C314.8 47.9381 310.736 41.8835 308.771 38.9561ZM311.359 37.2184L316.183 44.4039C317.55 42.4245 319.734 37.3875 317.532 33.0747M311.359 37.2184L317.532 33.0747" stroke="#F0F3FD"/>
<path d="M42.8567 59.5669L45.1272 55.8832L43.698 55.0023M34.7149 49.4656L37.369 51.1014M34.7149 49.4656L39.0035 42.5074C39.1036 42.1926 39.0397 41.6261 37.9827 41.8783L32.7642 41.2034L24.8176 54.0964L27.1349 59.4782C27.3911 59.8244 28.0296 60.3121 28.5342 59.4935C29.0387 58.6749 32.8649 52.4671 34.7149 49.4656ZM37.369 51.1014L32.8281 58.4688C35.1961 58.8929 40.6853 58.7933 43.698 55.0023M37.369 51.1014L43.698 55.0023" stroke="#F0F3FD"/>
<path d="M54.7383 277.575L49.9021 279.264L50.5572 281.14M54.6754 292.934L53.4587 289.449M54.6754 292.934L45.5403 296.124C45.2132 296.338 44.849 296.906 46.0083 297.464L50.2984 301.98L67.2253 296.07L69.1149 289.395C69.138 288.886 68.9156 287.961 67.8409 288.337C66.7662 288.712 58.6161 291.558 54.6754 292.934ZM53.4587 289.449L63.1312 286.072C61.2725 283.914 56.1555 279.907 50.5572 281.14M53.4587 289.449L50.5572 281.14" stroke="#F0F3FD"/>
<path d="M336.731 327.194L334.817 322.442L332.974 323.184M321.386 327.851L324.81 326.472M321.386 327.851L317.771 318.876C317.542 318.559 316.957 318.222 316.455 319.406L312.144 323.903L318.842 340.534L325.598 342.109C326.107 342.108 327.021 341.842 326.595 340.786C326.17 339.731 322.945 331.723 321.386 327.851ZM324.81 326.472L328.637 335.976C330.705 334.018 334.468 328.719 332.974 323.184M324.81 326.472L332.974 323.184" stroke="#F0F3FD"/>
</g>
<defs>
<linearGradient id="paint0_linear_410_1377" x1="0" y1="348.5" x2="350" y2="348.5" gradientUnits="userSpaceOnUse">
<stop stop-color="#4ED1BE"/>
<stop offset="0.633333" stop-color="#2DBE64"/>
<stop offset="1" stop-color="#A1DE83"/>
</linearGradient>
<clipPath id="clip0_410_1377">
<rect width="350" height="697" rx="30" fill="white"/>
</clipPath>
</defs>
</svg>
