<svg width="350" height="769" viewBox="0 0 350 769" fill="none" xmlns="http://www.w3.org/2000/svg">
<g clip-path="url(#clip0_410_1390)">
<rect width="350" height="769" rx="30" fill="#35C378" fill-opacity="0.1"/>
<path d="M267 655.693C271.233 654.794 280.551 651.833 283.957 647.179C287.362 642.525 286.274 645.24 285.305 647.179C286.7 650.443 291.35 656.445 298.785 654.345" stroke="#32C171" stroke-width="3"/>
<path d="M298.714 654.361C302.947 653.462 312.265 650.501 315.671 645.847C319.076 641.193 317.988 643.908 317.019 645.847C318.414 649.111 323.064 655.113 330.499 653.013" stroke="#32C171" stroke-width="3"/>
<path d="M330.215 653.084C334.448 652.185 343.766 649.224 347.172 644.57C350.577 639.916 349.489 642.631 348.52 644.57C349.915 647.833 354.564 653.836 362 651.736" stroke="#32C171" stroke-width="3"/>
<path d="M-1.28601 658.361C2.94725 657.462 12.2651 654.501 15.6707 649.847C19.0762 645.193 17.9883 647.908 17.0187 649.847C18.414 653.111 23.0635 659.113 30.4989 657.013" stroke="#32C171" stroke-width="3"/>
<path d="M30.215 657.084C34.4482 656.185 43.7661 653.224 47.1716 648.57C50.5772 643.916 49.4893 646.631 48.5197 648.57C49.915 651.833 54.5645 657.836 61.9999 655.736" stroke="#32C171" stroke-width="3"/>
<path d="M284 738.693C288.233 737.794 297.551 734.833 300.957 730.179C304.362 725.525 303.274 728.24 302.305 730.179C303.7 733.443 308.35 739.445 315.785 737.345" stroke="#32C171" stroke-width="3"/>
<path d="M315.714 737.361C319.947 736.462 329.265 733.501 332.671 728.847C336.076 724.193 334.988 726.908 334.019 728.847C335.414 732.111 340.064 738.113 347.499 736.013" stroke="#32C171" stroke-width="3"/>
<path d="M347.215 736.084C351.448 735.185 360.766 732.224 364.172 727.57C367.577 722.916 366.489 725.631 365.52 727.57C366.915 730.833 371.564 736.836 379 734.736" stroke="#32C171" stroke-width="3"/>
<path d="M285 703.693C289.233 702.794 298.551 699.833 301.957 695.179C305.362 690.525 304.274 693.24 303.305 695.179C304.7 698.443 309.35 704.445 316.785 702.345" stroke="#32C171" stroke-width="3"/>
<path d="M316.714 702.361C320.947 701.462 330.265 698.501 333.671 693.847C337.076 689.193 335.988 691.908 335.019 693.847C336.414 697.111 341.064 703.113 348.499 701.013" stroke="#32C171" stroke-width="3"/>
<path d="M348.215 701.084C352.448 700.185 361.766 697.224 365.172 692.57C368.577 687.916 367.489 690.631 366.52 692.57C367.915 695.833 372.564 701.836 380 699.736" stroke="#32C171" stroke-width="3"/>
<path d="M-1.28601 700.361C2.94725 699.462 12.2651 696.501 15.6707 691.847C19.0762 687.193 17.9883 689.908 17.0187 691.847C18.414 695.111 23.0635 701.113 30.4989 699.013" stroke="#32C171" stroke-width="3"/>
<path d="M30.215 699.084C34.4482 698.185 43.7661 695.224 47.1716 690.57C50.5772 685.916 49.4893 688.631 48.5197 690.57C49.915 693.833 54.5645 699.836 61.9999 697.736" stroke="#32C171" stroke-width="3"/>
<path d="M-12 736.693C-7.76674 735.794 1.55116 732.833 4.95668 728.179C8.36221 723.525 7.27433 726.24 6.3047 728.179C7.70002 731.443 12.3495 737.445 19.7849 735.345" stroke="#32C171" stroke-width="3"/>
<path d="M19.714 735.361C23.9472 734.462 33.2651 731.501 36.6707 726.847C40.0762 722.193 38.9883 724.908 38.0187 726.847C39.414 730.111 44.0635 736.113 51.4989 734.013" stroke="#32C171" stroke-width="3"/>
<path d="M51.215 734.084C55.4482 733.185 64.7661 730.224 68.1716 725.57C71.5772 720.916 70.4893 723.631 69.5197 725.57C70.915 728.833 75.5645 734.836 82.9999 732.736" stroke="#32C171" stroke-width="3"/>
<path d="M0 771.693C4.23326 770.794 13.5512 767.833 16.9567 763.179C20.3622 758.525 19.2743 761.24 18.3047 763.179C19.7 766.443 24.3495 772.445 31.7849 770.345" stroke="#32C171" stroke-width="3"/>
<path d="M31.714 770.361C35.9472 769.462 45.2651 766.501 48.6707 761.847C52.0762 757.193 50.9883 759.908 50.0187 761.847C51.414 765.111 56.0635 771.113 63.4989 769.013" stroke="#32C171" stroke-width="3"/>
<path d="M63.215 769.084C67.4482 768.185 76.7661 765.224 80.1716 760.57C83.5772 755.916 82.4893 758.631 81.5197 760.57C82.915 763.833 87.5645 769.836 94.9999 767.736" stroke="#32C171" stroke-width="3"/>
<path d="M95 772.693C99.2333 771.794 108.551 768.833 111.957 764.179C115.362 759.525 114.274 762.24 113.305 764.179C114.7 767.443 119.35 773.445 126.785 771.345" stroke="#32C171" stroke-width="3"/>
<path d="M126.714 771.361C130.947 770.462 140.265 767.501 143.671 762.847C147.076 758.193 145.988 760.908 145.019 762.847C146.414 766.111 151.064 772.113 158.499 770.013" stroke="#32C171" stroke-width="3"/>
<path d="M158.215 770.084C162.448 769.185 171.766 766.224 175.172 761.57C178.577 756.916 177.489 759.631 176.52 761.57C177.915 764.833 182.564 770.836 190 768.736" stroke="#32C171" stroke-width="3"/>
<path d="M190 769.693C194.233 768.794 203.551 765.833 206.957 761.179C210.362 756.525 209.274 759.24 208.305 761.179C209.7 764.443 214.35 770.445 221.785 768.345" stroke="#32C171" stroke-width="3"/>
<path d="M221.714 768.361C225.947 767.462 235.265 764.501 238.671 759.847C242.076 755.193 240.988 757.908 240.019 759.847C241.414 763.111 246.064 769.113 253.499 767.013" stroke="#32C171" stroke-width="3"/>
<path d="M253.215 767.084C257.448 766.185 266.766 763.224 270.172 758.57C273.577 753.916 272.489 756.631 271.52 758.57C272.915 761.833 277.564 767.836 285 765.736" stroke="#32C171" stroke-width="3"/>
<path d="M285 766.693C289.233 765.794 298.551 762.833 301.957 758.179C305.362 753.525 304.274 756.24 303.305 758.179C304.7 761.443 309.35 767.445 316.785 765.345" stroke="#32C171" stroke-width="3"/>
<path d="M316.714 765.361C320.947 764.462 330.265 761.501 333.671 756.847C337.076 752.193 335.988 754.908 335.019 756.847C336.414 760.111 341.064 766.113 348.499 764.013" stroke="#32C171" stroke-width="3"/>
<path d="M348.215 764.084C352.448 763.185 361.766 760.224 365.172 755.57C368.577 750.916 367.489 753.631 366.52 755.57C367.915 758.833 372.564 764.836 380 762.736" stroke="#32C171" stroke-width="3"/>
</g>
<defs>
<clipPath id="clip0_410_1390">
<rect width="350" height="769" rx="30" fill="white"/>
</clipPath>
</defs>
</svg>
