<svg width="1468" height="671" viewBox="0 0 1468 671" fill="none" xmlns="http://www.w3.org/2000/svg">
<g clip-path="url(#clip0_319_787)">
<rect width="1468" height="671" rx="60" fill="url(#paint0_linear_319_787)"/>
<path d="M122.476 319.648L124.149 305.191L118.541 304.542M83.2871 300.463L93.703 301.668M83.2871 300.463L86.4472 273.156C86.3041 272.054 85.3024 270.419 82.4411 272.692L65.5802 278.066L59.7247 328.664L74.4479 341.762C75.7213 342.452 78.361 343.029 78.7328 339.816C79.1046 336.604 81.9239 312.242 83.2871 300.463ZM93.703 301.668L90.357 330.581C98.1758 328.501 114.759 320.383 118.541 304.542M93.703 301.668L118.541 304.542" stroke="#F0F3FD" stroke-opacity="0.4"/>
<path d="M974.491 557.063L962.609 565.466L965.87 570.075M986.362 599.05L980.307 590.489M986.362 599.05L963.918 614.923C963.194 615.765 962.644 617.602 966.247 618.215L981.503 627.184L1023.09 597.773L1023.02 578.067C1022.68 576.658 1021.35 574.308 1018.71 576.175C1016.07 578.042 996.043 592.203 986.362 599.05ZM980.307 590.489L1004.07 573.683C997.303 569.249 980.189 562.319 965.87 570.075M980.307 590.489L965.87 570.075" stroke="#F0F3FD"/>
<path d="M1288.76 605.458L1269.2 602.292L1267.98 609.88M1260.25 657.579L1262.53 643.486M1260.25 657.579L1223.31 651.598C1221.8 651.725 1219.51 652.986 1222.43 657.018L1228.7 680.283L1297.16 691.365L1315.88 672.147C1316.9 670.457 1317.85 666.902 1313.5 666.199C1309.15 665.495 1276.19 660.159 1260.25 657.579ZM1262.53 643.486L1301.65 649.819C1299.31 639.056 1289.29 616 1267.98 609.88M1262.53 643.486L1267.98 609.88" stroke="#F0F3FD"/>
<g filter="url(#filter0_f_319_787)">
<ellipse cx="1143.39" cy="326.637" rx="281" ry="271.808" transform="rotate(13.7028 1143.39 326.637)" fill="white" fill-opacity="0.4"/>
</g>
<path d="M1376.91 26.8441L1359.87 43.8853L1366.48 50.4966M1408.04 92.0537L1395.76 79.7755M1408.04 92.0537L1375.85 124.243C1374.9 125.82 1374.52 128.972 1380.57 128.965L1407.98 139.334L1467.63 79.6895L1461.99 47.5457C1461.05 45.3404 1458.21 41.8765 1454.43 45.6635C1450.64 49.4504 1421.92 78.1682 1408.04 92.0537ZM1395.76 79.7755L1429.84 45.693C1417.56 40.3492 1387.68 33.8287 1366.48 50.4966M1395.76 79.7755L1366.48 50.4966" stroke="#F0F3FD"/>
<path d="M101.691 613.36L91.0449 607.214L88.6603 611.344M73.6711 637.306L78.0997 629.635M73.6711 637.306L53.5616 625.696C52.6594 625.437 51.0558 625.665 51.8583 628.646L50.3683 643.52L87.6299 665.033L102.724 658.013C103.686 657.257 105.018 655.404 102.653 654.038C100.287 652.672 82.3458 642.314 73.6711 637.306ZM78.0997 629.635L99.3921 641.928C100.403 635.169 99.6718 619.59 88.6603 611.344M78.0997 629.635L88.6603 611.344" stroke="#F0F3FD"/>
<path d="M43.887 85.6526L33.8814 92.7948L36.6524 96.6766M54.0696 121.076L48.9236 113.867M54.0696 121.076L35.1703 134.567C34.5611 135.281 34.104 136.835 37.1495 137.34L50.0693 144.859L85.0886 119.861L84.9537 103.216C84.6646 102.027 83.5304 100.046 81.3069 101.633C79.0835 103.221 62.2222 115.257 54.0696 121.076ZM48.9236 113.867L68.9346 99.5827C63.2019 95.862 48.7196 90.0717 36.6524 96.6766M48.9236 113.867L36.6524 96.6766" stroke="#F0F3FD"/>
<path d="M744.973 156.42L730.755 153.313L729.55 158.829M721.973 193.499L724.211 183.256M721.973 193.499L695.118 187.63C694.007 187.663 692.28 188.496 694.257 191.57L697.921 208.883L747.682 219.758L762.184 206.416C762.998 205.217 763.835 202.648 760.676 201.958C757.516 201.267 733.557 196.031 721.973 193.499ZM724.211 183.256L752.646 189.47C751.357 181.483 744.934 164.172 729.55 158.829M724.211 183.256L729.55 158.829" stroke="#F0F3FD"/>
<path d="M851.276 -37.6674L837.939 -31.8449L840.197 -26.6705M854.396 5.85424L850.201 -3.75535M854.396 5.85424L829.203 16.8522C828.323 17.5299 827.413 19.2179 830.817 20.5482L843.94 32.4209L890.621 12.0423L894.54 -7.27029C894.496 -8.71793 893.668 -11.2898 890.704 -9.99587C887.74 -8.70199 865.264 1.10999 854.396 5.85424ZM850.201 -3.75535L876.876 -15.4003C871.147 -21.1134 855.791 -31.3659 840.197 -26.6705M850.201 -3.75535L840.197 -26.6705" stroke="#F0F3FD"/>
<path d="M683.839 531.129L670.502 536.952L672.761 542.126M686.96 574.651L682.765 565.042M686.96 574.651L661.767 585.649C660.886 586.327 659.977 588.015 663.38 589.345L676.503 601.218L723.184 580.839L727.104 561.527C727.06 560.079 726.231 557.507 723.267 558.801C720.303 560.095 697.827 569.907 686.96 574.651ZM682.765 565.042L709.439 553.397C703.711 547.683 688.355 537.431 672.761 542.126M682.765 565.042L672.761 542.126" stroke="#F0F3FD"/>
</g>
<defs>
<filter id="filter0_f_319_787" x="762.834" y="-45.7605" width="761.111" height="744.795" filterUnits="userSpaceOnUse" color-interpolation-filters="sRGB">
<feFlood flood-opacity="0" result="BackgroundImageFix"/>
<feBlend mode="normal" in="SourceGraphic" in2="BackgroundImageFix" result="shape"/>
<feGaussianBlur stdDeviation="50" result="effect1_foregroundBlur_319_787"/>
</filter>
<linearGradient id="paint0_linear_319_787" x1="0" y1="335.5" x2="1468" y2="335.5" gradientUnits="userSpaceOnUse">
<stop stop-color="#4ED1BE"/>
<stop offset="0.633333" stop-color="#2DBE64"/>
<stop offset="1" stop-color="#A1DE83"/>
</linearGradient>
<clipPath id="clip0_319_787">
<rect width="1468" height="671" rx="60" fill="white"/>
</clipPath>
</defs>
</svg>
