<svg width="300" height="350" viewBox="0 0 300 350" fill="none" xmlns="http://www.w3.org/2000/svg">
<g clip-path="url(#clip0_4_9)">
<rect width="300" height="350" rx="15" fill="#F5FFFA"/>
<path opacity="0.3" d="M28.2082 341.932C34.6943 325.05 49.7267 290.646 57.9671 288.088C54.1835 303.984 42.9348 337.008 28.2082 341.932ZM28.2082 341.932C12.9424 327.863 -4.3038 289.92 -11.0187 272.707C0.1269 280.481 19.7765 322.096 28.2082 341.932ZM28.2082 341.932L28.7903 314.799M28.7903 314.799C25.7945 300.483 18.3364 268.993 12.4712 257.564C12.1182 274.497 14.8878 309.65 28.7903 314.799ZM28.7903 314.799C34.2754 297.78 48.918 262.157 63.608 255.817C56.3187 273.92 39.1501 311.062 28.7903 314.799ZM28.7903 314.799L35.1507 279.638M35.1507 279.638C32.7715 262.394 26.7865 227.243 21.8807 224.584C20.4268 248.706 21.0454 293.488 35.1507 279.638ZM35.1507 279.638L39.6327 265.169M44.1148 250.701C48.8234 244.614 61.0727 232.368 72.4009 232.075C66.4399 242.49 51.541 263.689 39.6327 265.169M44.1148 250.701L39.6327 265.169M44.1148 250.701L47.7119 240.988M51.3089 231.276C51.0081 220.412 49.381 196.341 45.279 186.968C39.2306 201.09 31.2493 231.666 47.7119 240.988M51.3089 231.276L47.7119 240.988M51.3089 231.276L55.8481 221.387M51.3089 231.276C69.973 229.353 79.3895 214.152 81.7647 206.792C74.5841 212.548 61.4951 218.92 55.8481 221.387M55.8481 221.387L61.829 206.421M61.829 206.421L67.8098 191.456C72.252 186.089 82.598 175.194 88.4448 174.555C85.5881 184.95 76.2656 205.878 61.829 206.421ZM34.1351 360.957C43.0308 353.031 61.3591 332.892 63.5058 315.735C52.7524 324.258 31.8236 345.234 34.1351 360.957ZM-17.7102 311.602C-11.6158 324.494 4.00335 351.62 17.7251 356.983C34.8774 363.686 -3.96099 314.24 -17.7102 311.602Z" stroke="#35C378"/>
<path opacity="0.3" d="M252.904 369C268.946 365.182 299.818 353.079 294.962 335.215C288.506 327.288 279.468 309.666 294.962 302.59C300.165 294.47 305.83 276.954 286.868 271.85C283.785 272.478 277.907 275.417 279.063 282.145C280.22 288.873 280.539 289.115 280.057 287.23C277.989 293.219 283.342 295.543 279.063 298.675C274.785 301.807 274.183 301.337 275.966 300.66C279.145 299.042 266.345 305.548 268.079 310.42C267.501 313.707 268.889 322.629 279.063 332.025C280.605 339.275 277.531 356.82 252.904 369ZM252.904 369C260.275 361.025 274.323 342.465 271.548 332.025C268.368 323.857 262.009 307.027 262.009 305.055C262.009 302.59 275.306 276.635 273.427 269.965C270.681 266.437 264.553 258.249 262.009 253.725C262.635 248.457 263.888 237.166 263.888 234.15C260.323 226.949 251.285 213.328 243.654 216.46C239.511 218.635 233.711 225.74 243.654 236.76C246.256 240.482 249.898 248.505 243.654 250.825C243.702 253.87 245.62 261.961 252.904 269.965C255.987 273.928 260.304 283.537 252.904 290.265C245.504 296.993 251.57 293.305 243.498 300.553C239.616 303.646 244.223 305.896 256.083 321.44C259.311 325.899 265.391 337.101 263.888 346.235C259.167 352.18 250.36 365.056 252.904 369ZM252.904 369C256.324 361.363 261.749 344.292 256.083 337.1C254.927 333.958 251.256 327.269 245.822 325.645C243.269 323.18 238.711 316.684 240.908 310.42C241.149 300.125 238.307 280.608 225.01 284.9C211.713 289.192 210.404 288.876 210 292.5C214.843 300.15 214.604 293.803 225.01 307.955C227.467 311.242 233.017 320.657 235.56 332.025C238.933 334.103 246.4 339.42 249.291 344.06C252.181 348.7 252.211 351.14 252.306 351.89C253.028 357.593 252.904 361.924 252.904 369ZM252.904 369C252.326 363.297 249.117 351.89 240.908 351.89C238.403 350.694 233.826 346.815 235.56 340.87C233.344 337.197 227.698 332.054 222.842 340.87C221.686 342.948 220.992 348.787 227.467 355.515C230.309 356.288 236.977 358.56 240.908 361.46C242.401 361.992 246.458 364.244 250.736 369" stroke="url(#paint0_linear_4_9)"/>
</g>
<defs>
<linearGradient id="paint0_linear_4_9" x1="300" y1="291.358" x2="210" y2="291.358" gradientUnits="userSpaceOnUse">
<stop stop-color="#42E3B4"/>
<stop offset="0.496492" stop-color="#00D900"/>
<stop offset="1" stop-color="#A0E720"/>
</linearGradient>
<clipPath id="clip0_4_9">
<rect width="300" height="350" rx="15" fill="white"/>
</clipPath>
</defs>
</svg>
